<svg width="171" height="171" viewBox="0 0 171 171" fill="none" xmlns="http://www.w3.org/2000/svg">
<g clip-path="url(#clip0_1666_198)">
<path d="M166.932 117.867H163.23V114.113H166.932C167.598 114.113 168.14 113.578 168.14 112.919V93.7402C168.14 93.4493 168.03 93.164 167.834 92.9444L148.475 71.4359C148.245 71.1807 147.916 71.0343 147.571 71.0343H129.794V114.113H145.756V117.867H125.994V67.2803H147.571C148.999 67.2803 150.364 67.8847 151.314 68.9414L170.675 90.4536C171.492 91.364 171.94 92.5315 171.94 93.7402V112.919C171.94 115.647 169.692 117.867 166.932 117.867Z" fill="black"/>
<path d="M129.795 117.867H90.7932V114.113H125.995V55.1419C125.995 51.4818 123.711 48.503 120.901 48.503H61.4857C58.6756 48.503 56.3918 51.4818 56.3918 55.1419V111.883C56.3918 113.197 57.167 114.113 57.8624 114.113H73.3341V117.867H57.8624C54.9554 117.867 52.5918 115.183 52.5918 111.883V55.1419C52.5918 49.4115 56.5818 44.749 61.4857 44.749H120.903C125.806 44.749 129.796 49.4115 129.796 55.1419L129.795 117.867Z" fill="black"/>
<path d="M154.492 126.061C148.626 126.061 143.855 121.347 143.855 115.553C143.855 109.759 148.626 105.044 154.492 105.044C160.357 105.044 165.13 109.759 165.13 115.553C165.13 121.347 160.357 126.061 154.492 126.061ZM154.492 108.8C150.724 108.8 147.655 111.829 147.655 115.555C147.655 119.277 150.722 122.309 154.492 122.309C158.261 122.309 161.33 119.279 161.33 115.555C161.33 111.829 158.263 108.8 154.492 108.8Z" fill="black"/>
<path d="M82.0561 126.061C76.1908 126.061 71.4199 121.347 71.4199 115.553C71.4199 109.759 76.1908 105.044 82.0561 105.044C87.9214 105.044 92.6923 109.759 92.6923 115.553C92.6923 121.347 87.9214 126.061 82.0561 126.061ZM82.0561 108.8C78.2865 108.8 75.2199 111.829 75.2199 115.555C75.2199 119.277 78.2865 122.309 82.0561 122.309C85.8257 122.309 88.8923 119.279 88.8923 115.555C88.8923 111.829 85.8257 108.8 82.0561 108.8Z" fill="black"/>
<path d="M170.039 94.4501H142.715C140.135 94.4501 138.035 92.3779 138.035 89.829V79.6182C138.035 77.0692 140.133 74.9951 142.715 74.9951H155.908V78.7491H142.715C142.23 78.7491 141.835 79.1395 141.835 79.6182V89.829C141.835 90.3076 142.23 90.6962 142.715 90.6962H170.039V94.4501Z" fill="black"/>
<path d="M41.233 100.313H17.3082C16.2594 100.313 15.4082 99.4736 15.4082 98.4356C15.4082 97.3976 16.2594 96.5586 17.3082 96.5586H41.233C42.2818 96.5586 43.133 97.3976 43.133 98.4356C43.133 99.4736 42.2818 100.313 41.233 100.313Z" fill="black"/>
<path d="M41.2325 87.3409H9.71152C8.66272 87.3409 7.81152 86.5 7.81152 85.4639C7.81152 84.4278 8.66272 83.5869 9.71152 83.5869H41.2325C42.2813 83.5869 43.1325 84.4278 43.1325 85.4639C43.1325 86.5 42.2813 87.3409 41.2325 87.3409Z" fill="black"/>
<path d="M41.2328 74.3702H2.83945C1.79065 74.3702 0.939453 73.5293 0.939453 72.4932C0.939453 71.4571 1.79065 70.6162 2.83945 70.6162H41.2328C42.2816 70.6162 43.1328 71.4571 43.1328 72.4932C43.1328 73.5293 42.2816 74.3702 41.2328 74.3702Z" fill="black"/>
<path d="M91.1935 97.8962C80.373 97.8962 71.5703 89.2001 71.5703 78.5107C71.5703 67.8212 80.373 59.127 91.1935 59.127C102.012 59.127 110.815 67.8231 110.815 78.5125C110.815 89.202 102.012 97.8962 91.1935 97.8962ZM91.1935 62.8809C82.4687 62.8809 75.3703 69.8934 75.3703 78.5125C75.3703 87.1317 82.4687 94.1441 91.1935 94.1441C99.9183 94.1441 107.015 87.1317 107.015 78.5125C107.015 69.8934 99.9183 62.8809 91.1935 62.8809Z" fill="black"/>
<path d="M88.9076 86.5994C88.3908 86.5994 87.8949 86.3911 87.5358 86.0213L82.3526 80.6813C81.6268 79.9342 81.6515 78.7461 82.4096 78.0272C83.1658 77.3083 84.3685 77.3327 85.0962 78.0835L88.8202 81.922L97.2125 72.1466C97.8908 71.3583 99.0897 71.2588 99.8896 71.9289C100.691 72.599 100.79 73.7833 100.11 74.5754L90.3554 85.9369C90.0058 86.3423 89.5023 86.5826 88.9646 86.5994C88.9456 86.5994 88.9266 86.5994 88.9076 86.5994Z" fill="black"/>
</g>
<defs>
<clipPath id="clip0_1666_198">
<rect width="171" height="171" fill="white"/>
</clipPath>
</defs>
</svg>
